<svg width="512" height="512" viewBox="0 0 512 512" fill="none" xmlns="http://www.w3.org/2000/svg">
<g clip-path="url(#clip0_1734_14432)">
<path d="M296 226H338H296ZM246 226H288H246ZM197 226H239H197ZM148 226H189H148ZM98 226H140H98ZM148 180H189H148ZM197 180H239H197ZM246 180H288H246ZM246 134H288H246Z" fill="black"/>
<path d="M296 226H338M246 226H288M197 226H239M148 226H189M98 226H140M148 180H189M197 180H239M246 180H288M246 134H288" stroke="#066DA5" stroke-width="38"/>
<path d="M471.999 228C471.999 228 453.999 211 416.999 217C412.999 188 381.999 171 381.999 171C381.999 171 352.999 206 373.999 245C367.999 248 357.999 252 342.999 252H67.9986C62.9986 271 62.9986 397 200.999 397C299.999 397 373.999 351 408.999 267C460.999 271 471.999 228 471.999 228Z" fill="#066DA5"/>
</g>
<defs>
<clipPath id="clip0_1734_14432">
<rect width="512" height="512" fill="white"/>
</clipPath>
</defs>
</svg>
