<svg width="800" height="800" viewBox="0 0 800 800" fill="none" xmlns="http://www.w3.org/2000/svg">
<g clip-path="url(#clip0_1759_1205)">
<path d="M266.665 800C340.265 800 399.999 740.266 399.999 666.666V533.333H266.665C193.065 533.333 133.332 593.066 133.332 666.666C133.332 740.266 193.065 800 266.665 800Z" fill="#0ACF83"/>
<path d="M133.332 400C133.332 326.4 193.065 266.667 266.665 266.667H399.999V533.334H266.665C193.065 533.334 133.332 473.6 133.332 400Z" fill="#A259FF"/>
<path d="M133.332 133.333C133.332 59.7333 193.065 0 266.665 0H399.999V266.667H266.665C193.065 266.667 133.332 206.933 133.332 133.333Z" fill="#F24E1E"/>
<path d="M400 0H533.333C606.933 0 666.667 59.7333 666.667 133.333C666.667 206.933 606.933 266.667 533.333 266.667H400V0Z" fill="#FF7262"/>
<path d="M666.667 400C666.667 473.6 606.933 533.334 533.333 533.334C459.733 533.334 400 473.6 400 400C400 326.4 459.733 266.667 533.333 266.667C606.933 266.667 666.667 326.4 666.667 400Z" fill="#1ABCFE"/>
</g>
<defs>
<clipPath id="clip0_1759_1205">
<rect width="800" height="800" fill="white"/>
</clipPath>
</defs>
</svg>
