<svg width="800" height="800" viewBox="0 0 800 800" fill="none" xmlns="http://www.w3.org/2000/svg">
<g clip-path="url(#clip0_1736_1205)">
<path d="M0 0H800V800H0V0Z" fill="#F7DF1E"/>
<path d="M210.351 668.538L271.57 631.488C283.382 652.429 294.126 670.147 319.898 670.147C344.601 670.147 360.179 660.485 360.179 622.897V367.279H435.357V623.96C435.357 701.825 389.713 737.269 323.12 737.269C262.979 737.269 228.07 706.122 210.348 668.532M476.191 660.482L537.404 625.041C553.52 651.357 574.463 670.688 611.513 670.688C642.666 670.688 662.529 655.113 662.529 633.632C662.529 607.857 642.123 598.725 607.754 583.694L588.963 575.632C534.723 552.547 498.745 523.547 498.745 462.329C498.745 405.941 541.704 362.979 608.832 362.979C656.626 362.979 690.995 379.628 715.695 423.125L657.157 460.719C644.266 437.628 630.31 428.5 608.829 428.5C586.81 428.5 572.848 442.463 572.848 460.719C572.848 483.272 586.81 492.407 619.029 506.369L637.823 514.422C701.729 541.813 737.707 569.735 737.707 632.56C737.707 700.229 684.545 737.278 613.123 737.278C543.313 737.278 498.204 703.985 476.188 660.485" fill="black"/>
</g>
<defs>
<clipPath id="clip0_1736_1205">
<rect width="800" height="800" fill="white"/>
</clipPath>
</defs>
</svg>
