<svg width="800" height="800" viewBox="0 0 800 800" fill="none" xmlns="http://www.w3.org/2000/svg">
<path d="M398.563 200C297.013 200 303.35 244.038 303.35 244.038L303.475 289.663H400.375V303.35H264.963C264.963 303.35 200 295.975 200 398.45C200 500.9 256.713 497.275 256.713 497.275H290.563V449.725C290.563 449.725 288.737 393.013 346.375 393.013H442.475C442.475 393.013 496.475 393.888 496.475 340.825V253.088C496.475 253.088 504.675 200 398.563 200ZM345.125 230.675C354.763 230.675 362.562 238.475 362.562 248.113C362.562 257.75 354.763 265.55 345.125 265.55C342.834 265.553 340.565 265.105 338.448 264.229C336.331 263.354 334.407 262.07 332.787 260.45C331.168 258.83 329.883 256.907 329.008 254.789C328.133 252.672 327.684 250.403 327.688 248.113C327.688 238.475 335.488 230.675 345.125 230.675Z" fill="url(#paint0_linear_1736_1208)"/>
<path d="M401.438 597.912C502.988 597.912 496.651 553.875 496.651 553.875L496.526 508.25H399.626V494.562H535.026C535.026 494.562 600.001 501.937 600.001 399.475C600.001 297.012 543.288 300.65 543.288 300.65H509.438V348.187C509.438 348.187 511.263 404.9 453.626 404.9H357.526C357.526 404.9 303.526 404.025 303.526 457.087V544.825C303.526 544.825 295.326 597.912 401.438 597.912ZM454.876 567.237C452.585 567.241 450.316 566.792 448.199 565.917C446.082 565.042 444.158 563.757 442.538 562.137C440.918 560.517 439.634 558.594 438.759 556.477C437.884 554.36 437.435 552.091 437.438 549.8C437.438 540.175 445.238 532.375 454.876 532.375C464.513 532.375 472.313 540.162 472.313 549.8C472.313 559.45 464.513 567.237 454.876 567.237Z" fill="url(#paint1_linear_1736_1208)"/>
<defs>
<linearGradient id="paint0_linear_1736_1208" x1="238.438" y1="234.775" x2="436.225" y2="433.225" gradientUnits="userSpaceOnUse">
<stop stop-color="#387EB8"/>
<stop offset="1" stop-color="#366994"/>
</linearGradient>
<linearGradient id="paint1_linear_1736_1208" x1="360.113" y1="361.025" x2="572.538" y2="564.537" gradientUnits="userSpaceOnUse">
<stop stop-color="#FFE052"/>
<stop offset="1" stop-color="#FFC331"/>
</linearGradient>
</defs>
</svg>
