<svg width="209" height="58" viewBox="0 0 209 58" fill="none" xmlns="http://www.w3.org/2000/svg">
<path d="M93.4989 15.8725H99.3404V40.6018C99.8597 50.9868 94.9917 55.9197 84.7365 55.4004C77.8564 55.2706 73.7673 52.6744 72.4692 47.6117L78.1161 47.2222C79.4142 49.5589 81.8157 50.7921 85.3207 50.9219C90.7728 50.9219 93.4989 48.066 93.4989 42.3542V38.6546C91.8113 41.8999 88.5011 43.5226 83.5682 43.5226C75.6496 43.2629 71.6254 38.5897 71.4956 29.5028C71.7552 20.1563 75.9741 15.3532 84.1523 15.0936C88.566 15.2234 91.6815 16.8461 93.4989 19.9616V15.8725ZM93.4989 30.2817V27.7503C93.2392 22.6876 90.7079 20.0265 85.9048 19.7668C80.4527 19.8967 77.6617 23.142 77.5319 29.5028C77.6617 35.9934 80.3229 39.3036 85.5154 39.4335C90.7079 39.3036 93.369 36.2531 93.4989 30.2817ZM105.353 44.4962V3.41044H111.39V44.4962H105.353ZM117.403 44.4962V15.8725H123.439V44.4962H117.403ZM117.403 10.4203V4.38404H123.439V10.4203H117.403ZM155.739 44.6909H149.897V27.5556C149.897 22.3631 147.69 19.8317 143.277 19.9616C138.733 20.2212 136.137 22.8823 135.488 27.945V44.6909H129.646V15.8725H135.488V20.9352C137.825 17.3004 141.135 15.3532 145.419 15.0936C152.429 14.9638 155.869 18.8582 155.739 26.7767V44.6909ZM169.541 5.16291V15.8725H175.966V20.351H169.541V36.7074C169.411 39.6931 170.579 41.121 173.045 40.9912C174.084 40.9912 174.993 40.7965 175.772 40.4071L176.745 43.7173C175.447 44.7558 173.565 45.275 171.098 45.275C166.036 45.4048 163.569 42.8735 163.699 37.681V20.351H159.026V15.8725H163.699V6.72067L169.541 5.16291Z" fill="white" fill-opacity="0.88"/>
<rect x="16.3046" y="0.363281" width="34.4652" height="53.6395" transform="rotate(-0.604213 16.3046 0.363281)" fill="#101010"/>
<path d="M5.17881 49.6308L58.5868 17.8364C60.9278 16.4428 60.5803 12.8983 58.026 12.1165C57.1122 11.8368 56.1137 12.0136 55.3273 12.5944L5.17881 49.6308Z" fill="#F2FF5C"/>
</svg>
