<svg width="1821" height="1664" viewBox="0 0 1821 1664" fill="none" xmlns="http://www.w3.org/2000/svg">
<path d="M445.296 445.298H451.379C695.116 442.865 891.403 243.739 890.592 0.00250471C646.855 -0.808599 447.729 195.478 445.296 439.215V445.298C201.154 444.487 2.43331 640.774 0 884.511L0 890.594H6.08328C249.82 887.756 446.107 689.035 445.296 445.298C444.485 689.035 640.772 887.756 884.509 890.594H890.592V884.511C887.753 640.774 689.033 444.487 445.296 445.298Z" fill="url(#paint0_linear_1157_92)" fill-opacity="0.34"/>
<path d="M920.592 884.511V890.594H926.675C1170.41 888.161 1366.7 689.035 1365.89 445.298C1365.08 689.035 1561.36 887.755 1805.1 890.594H1811.18V884.511C1808.75 640.774 1610.03 444.487 1365.89 445.298C1122.15 444.487 923.431 640.774 920.592 884.511Z" fill="url(#paint1_linear_1157_92)" fill-opacity="0.34"/>
<path d="M1359.8 445.298H1365.89V439.215C1363.45 195.073 1164.33 -0.808594 920.592 0.00250987C919.781 243.739 1116.07 442.46 1359.8 445.298Z" fill="url(#paint2_linear_1157_92)" fill-opacity="0.34"/>
<path d="M484.298 1218.3H490.382C734.118 1215.87 930.406 1016.74 929.594 773.003C685.858 772.191 486.732 968.478 484.298 1212.22C481.46 968.478 282.739 772.191 39.0025 773.003C38.1914 1016.74 234.478 1215.87 478.215 1218.3H484.298C483.487 1462.44 679.774 1661.16 923.511 1663.59H929.594V1657.51C926.756 1413.77 728.035 1217.49 484.298 1218.3Z" fill="url(#paint3_linear_1157_92)" fill-opacity="0.34"/>
<path d="M1374.89 1212.22C1372.46 968.478 1173.33 772.191 929.594 773.003C928.783 1016.74 1125.07 1215.87 1368.81 1218.3H1374.89C1131.15 1217.49 932.433 1413.77 929.594 1657.51V1663.59H935.678C1179.41 1661.16 1375.7 1462.44 1374.89 1218.3H1380.97C1624.71 1215.87 1821 1016.74 1820.19 773.003C1576.45 772.191 1377.73 968.478 1374.89 1212.22Z" fill="url(#paint4_linear_1157_92)" fill-opacity="0.34"/>
<defs>
<linearGradient id="paint0_linear_1157_92" x1="445.297" y1="0" x2="445.297" y2="890.594" gradientUnits="userSpaceOnUse">
<stop stop-color="white"/>
<stop offset="0.0001" stop-color="#636363"/>
<stop offset="0.17" stop-color="#111111"/>
<stop offset="0.945" stop-color="#050505"/>
</linearGradient>
<linearGradient id="paint1_linear_1157_92" x1="1365.89" y1="445.296" x2="1365.89" y2="890.594" gradientUnits="userSpaceOnUse">
<stop stop-color="white"/>
<stop offset="0.0001" stop-color="#636363"/>
<stop offset="0.27" stop-color="#111111"/>
<stop offset="1" stop-color="#050505"/>
</linearGradient>
<linearGradient id="paint2_linear_1157_92" x1="1143.24" y1="0" x2="1143.24" y2="445.298" gradientUnits="userSpaceOnUse">
<stop stop-color="white"/>
<stop offset="0.0001" stop-color="#636363"/>
<stop offset="0.27" stop-color="#111111"/>
<stop offset="1" stop-color="#050505"/>
</linearGradient>
<linearGradient id="paint3_linear_1157_92" x1="484.298" y1="773" x2="484.298" y2="1663.59" gradientUnits="userSpaceOnUse">
<stop stop-color="#050505"/>
<stop offset="0.9999" stop-color="#636363"/>
<stop offset="1" stop-color="white"/>
</linearGradient>
<linearGradient id="paint4_linear_1157_92" x1="1374.89" y1="773" x2="1374.89" y2="1663.59" gradientUnits="userSpaceOnUse">
<stop stop-color="#050505"/>
<stop offset="0.9999" stop-color="#636363"/>
<stop offset="1" stop-color="white"/>
</linearGradient>
</defs>
</svg>
